<?xml version="1.0" encoding="utf-8"?>
<!-- Generator: Adobe Illustrator 21.0.0, SVG Export Plug-In . SVG Version: 6.00 Build 0)  -->
<svg version="1.1" id="图层_1" xmlns="http://www.w3.org/2000/svg" xmlns:xlink="http://www.w3.org/1999/xlink" x="0px" y="0px"
	 viewBox="0 0 1024 1024" style="enable-background:new 0 0 1024 1024;" xml:space="preserve">
<path d="M485.4,322.6l14.7-27.9c20.8-39.6,67.1-52.8,110-31.5c19.8,9.9,34.5,26.9,41.2,47.9c6.7,21,4.7,43.5-5.7,63.3l-46.1,88
	c-14.2,27.2-32.8,44.7-53.5,51.4c-16.9,5.6-35.2,4-53.7-5.3c-10.7-5.4-15-18.5-9.4-29.3c5.6-10.8,18.8-15.2,29.6-9.8
	c8.1,4,27,13.4,48.1-26.8l46.2-88c4.9-9.3,5.8-19.9,2.7-29.8c-3.2-9.9-10.1-17.9-19.5-22.6c-17.6-8.7-40.1-8.4-50.9,12.2l-14.6,27.9
	c-5.7,10.8-18.9,15.1-29.7,9.6C483.9,346.5,479.8,333.4,485.4,322.6L485.4,322.6L485.4,322.6z M410,645
	c20.4,10.2,43.3,11.1,63.7,4.4c20.4-6.7,38.4-21.1,49.1-41.4l11.8-22.4c5.7-10.8,1.5-23.9-9.2-29.3c-10.7-5.4-24-1.1-29.6,9.7
	L484,588.2c-10.2,19.4-34.4,27.4-53.8,17.7c-9.4-4.6-16.3-12.6-19.4-22.5c-3.1-9.9-2.2-20.5,2.7-29.8l43.3-82.5
	c9-17.1,27.5-44,51-32.3c10.8,5.4,24,1,29.6-9.8c5.5-10.8,1.3-23.9-9.5-29.3c-40-19.9-83.2,0.4-110.1,51.7l-43.3,82.5
	c-10.4,19.8-12.4,42.3-5.7,63.3C375.5,618.1,390.2,635.1,410,645L410,645L410,645z M784,167.3v693.2c0,37.4-29.9,67.8-66.8,67.8
	H302.9c-36.9,0-66.8-30.3-66.8-67.8V167.3c0-37.4,29.9-67.8,66.8-67.8h414.3C754,99.6,783.9,129.9,784,167.3L784,167.3L784,167.3z
	 M561,832.9c0-28.5-22.8-51.7-51-51.7c-28.1,0-51,23.1-51,51.7c0,28.5,22.8,51.7,51,51.7C538.2,884.6,561,861.5,561,832.9L561,832.9
	L561,832.9z M715.4,169.1H304.7v568.6h410.6L715.4,169.1L715.4,169.1L715.4,169.1z"/>
</svg>
