<?xml version="1.0" encoding="utf-8"?>
<!-- Generator: Adobe Illustrator 21.0.0, SVG Export Plug-In . SVG Version: 6.00 Build 0)  -->
<svg version="1.1" id="图层_1" xmlns="http://www.w3.org/2000/svg" xmlns:xlink="http://www.w3.org/1999/xlink" x="0px" y="0px"
	 viewBox="0 0 1024 1024" style="enable-background:new 0 0 1024 1024;" xml:space="preserve">
<path d="M336.9,170.7c14.8,10.6,31,24.5,43.4,42.6c12.5,18.1,35.5,41.6,35.5,41.6h187.9c0,0,19.8-20.4,31.9-36.5
	c11.9-16.1,22.1-31.5,44.6-45.8c18.9-11.9,28.6-41.6,4.4-51.2c-21-8.3-29.5,8.8-53.8,9.3c-24,0.4-27.3-19.8-51-28.6
	c-23.7-9-36.4-1.1-50.6,12.4c-14,13.6-19.4,14.3-19.4,14.3s-16.7-9.8-26-20.2c-9.1-10.4-33.1-14.1-48.8-4.3
	c-20,12.7-24.3,22.4-40.9,25.8c-18.9,3.9-48.7-19.1-65.2-5.6C312.5,137.9,322.1,159.9,336.9,170.7L336.9,170.7z M720.7,419
	c-69.9-58.7-107.5-114.5-107.5-114.5H408.5c0,0-39.3,58.4-102,112.7c-72,62.6-130.3,162.7-108.4,282.6
	c19.5,106.7,121,227.7,313.5,227.7c186.4,0,295.7-100.2,316.6-222.6C853.7,555.5,780.2,468.9,720.7,419L720.7,419z M611.1,734.9
	c-11.8-0.1-74.5,0-74.5,0s0.3,16.9,0.3,25.8c0,10.8-10.2,22.8-24.6,22.6c-14.4-0.2-25.1-6.9-26.3-23.4c-0.4-7.4-0.3-25-0.3-25h-75.3
	c-12.2,0-20.6-13.8-20.2-24c0.4-10.3,9.5-21.1,20.2-21.1h75.5l0.1-51.6c0,0-61.2,0.5-72.5,0.5c-11.6,0-19.6-8-20.1-18.1
	c-0.3-10.2,9.3-29.4,20.1-29.4h72.8l0.1-18.5c0,0-58.1-61.5-64.9-68.2c-6.7-6.7-15.1-21.9-4.2-34.1c10.3-11.7,29.4-3.2,38.5,5.5
	c10,9.6,56.5,57.6,56.5,57.6s54.2-50.3,65.4-59.6c11.1-9.2,26.3-9.8,34.8,0.5c8.5,10.1,5.1,20-8.6,32.5
	C590,519.5,537,573.6,537,573.6v16.8h69.9c15.8,0.5,24.7,18.2,24.5,27.8c-0.4,10.9-6.6,20-24.1,19.8l-69.9,0.2l-0.4,51.1h68.6
	c17.9,0,25.4,9.4,25.8,21.6C631.8,723,623,735.1,611.1,734.9L611.1,734.9z"/>
</svg>
