<?xml version="1.0" encoding="utf-8"?>
<!-- Generator: Adobe Illustrator 21.0.0, SVG Export Plug-In . SVG Version: 6.00 Build 0)  -->
<svg version="1.1" id="图层_1" xmlns="http://www.w3.org/2000/svg" xmlns:xlink="http://www.w3.org/1999/xlink" x="0px" y="0px"
	 viewBox="0 0 1024 1024" style="enable-background:new 0 0 1024 1024;" xml:space="preserve">
<path d="M814,450.2c-16.1-15.6-38.5-25.7-63-25.7h-6.5v-96.1c0-63.5-26-122.1-68.5-164c-41.7-42.1-100.5-68.7-164.5-68.7
	c-63,0-120.3,25.5-162.4,66.7l-2.1,2c-42.2,41.9-68.2,100.5-68.2,164v96H272c-23.9,0-46.6,10.2-62.4,25.8v0.5
	c-16.2,15.9-26,38.1-26,62.6v324.3c0,24.5,9.9,46.9,26,62.5c15.8,16.4,38.5,26.5,62.4,26.5h479c23.1,0,44.3-9.1,60.1-23.9l2.9-2.6
	c15.9-15.6,26-38,26-62.5l0-324.3C840,488.7,829.9,466.6,814,450.2L814,450.2z M352.2,328.4L352.2,328.4
	c0-43.7,17.7-83.8,46.6-112.4l1.9-2.1c28.6-27.6,67.9-44.8,110.9-44.8c44,0,83.8,17.7,112.7,46.9c28.9,28.6,47.1,68.7,47.1,112.4v96
	H352.2V328.4L352.2,328.4z M766.6,837.6L766.6,837.6c0,4.2-1.6,8.3-4.7,10.9l-1,1.1c-2.6,2.6-6,3.6-9.9,3.6H272
	c-4.2,0-7.8-1.6-10.7-4.7c-2.9-2.6-4.7-6.8-4.7-10.9V513.3c0-4.2,1.9-8.1,4.7-10.9l0,0c2.8-2.6,6.5-4.7,10.7-4.7h479
	c4.2,0,8.4,2.1,10.9,4.7c3.1,2.9,4.7,6.8,4.7,10.9L766.6,837.6L766.6,837.6z M511.5,554.9L511.5,554.9c-24.2,0-46.3,9.9-62.5,25.7
	c-15.6,15.9-25.5,38.3-25.5,62.4c0,24.2,9.9,46.6,25.5,62.8c11.5,10.9,25,19,40.6,23.1v45c0,12.2,9.6,22.4,21.9,22.4
	c12.2,0,22.4-10.2,22.4-22.4v-45c15.4-4.2,29.2-12.2,40.4-23.1c15.9-16.2,25.8-38.5,25.8-62.8c0-24.2-9.9-46.6-25.8-62.5
	C558.4,564.8,536,554.9,511.5,554.9L511.5,554.9z M543.2,674.6L543.2,674.6c-7.8,7.3-18.7,12.7-30.4,13h-2.3
	c-11.7-0.3-22.4-5.8-30.4-13c-7.5-8-12.7-19.3-12.7-31.5c0-12.2,5.2-23.7,12.7-31.2c8.3-8,19.2-13.3,31.5-13.3
	c12.5,0,23.9,5.2,31.7,13.3c7.5,7.5,12.8,19,12.8,31.2C556,655.4,550.8,666.6,543.2,674.6L543.2,674.6z"/>
</svg>
