<?xml version="1.0" encoding="utf-8"?>
<!-- Generator: Adobe Illustrator 21.0.0, SVG Export Plug-In . SVG Version: 6.00 Build 0)  -->
<svg version="1.1" id="图层_1" xmlns="http://www.w3.org/2000/svg" xmlns:xlink="http://www.w3.org/1999/xlink" x="0px" y="0px"
	 viewBox="0 0 1024 1024" style="enable-background:new 0 0 1024 1024;" xml:space="preserve">
<path d="M382.7,923.5c-75.9,0-147.3-29.6-201-83.2c-110.8-111-110.8-291.4,0-402.2c53.7-53.7,125.1-83.2,201-83.2
	c45.2,0,89.9,11.1,130.6,32.4L774.5,126c35.3-35.3,92.7-35.3,128,0l0,0c17.1,17.1,26.6,39.8,26.6,64c0,24.2-9.4,46.9-26.6,64l-62,62
	l62.1,62.1c35.3,35.3,35.3,92.7,0,128c-17.1,17.1-39.8,26.5-64,26.5c-24.2,0-46.9-9.4-64-26.5L712.4,444l-73.7,73.7
	c18.7,38.8,28.2,79.5,28.3,121.2c0.1,76-29.5,147.5-83.3,201.2C530,893.9,458.6,923.5,382.7,923.5z M382.7,406.7
	c-62.1,0-120.4,24.2-164.3,68c-90.6,90.6-90.6,238.1,0,328.8c43.9,43.9,102.2,68,164.3,68s120.4-24.2,164.3-68
	c44-44,68.2-102.4,68.1-164.5c-0.1-39.1-10.4-77.3-30.8-113.4l-9.7-17.2l137.8-137.8l98.8,98.8c7.3,7.3,17,11.3,27.3,11.3
	c10.3,0,20-4,27.3-11.3c15.1-15.1,15.1-39.6,0-54.6L767,316l98.8-98.8c7.3-7.3,11.3-17,11.3-27.3c0-10.3-4-20-11.3-27.3l0,0
	c-15.1-15.1-39.6-15.1-54.6,0L521.5,452.4L504,441.6C467,418.8,425,406.7,382.7,406.7z M382.6,793C341,793,301,777,273,749
	c-60.5-60.6-60.5-159.1,0-219.6c29.3-29.3,68.2-45.4,109.7-45.4s80.4,16.1,109.7,45.4c29.3,29.3,45.5,68.3,45.5,109.7
	c0,41.5-16.2,80.5-45.5,109.8C464.3,776.9,424.3,793,382.6,793C382.6,793,382.6,793,382.6,793z M382.7,535.9
	c-27.6,0-53.5,10.7-73,30.2c-40.2,40.2-40.2,105.8,0,146.2c38.8,38.8,107,38.7,146-0.1l0,0c19.5-19.4,30.2-45.4,30.2-73
	c0-27.6-10.7-53.5-30.2-73C436.2,546.6,410.3,535.9,382.7,535.9z"/>
</svg>
