<?xml version="1.0" encoding="utf-8"?>
<!-- Generator: Adobe Illustrator 21.0.0, SVG Export Plug-In . SVG Version: 6.00 Build 0)  -->
<svg version="1.1" id="图层_1" xmlns="http://www.w3.org/2000/svg" xmlns:xlink="http://www.w3.org/1999/xlink" x="0px" y="0px"
	 viewBox="0 0 1024 1024" style="enable-background:new 0 0 1024 1024;" xml:space="preserve">
<path d="M312.8,387.9v35.8l240.9-212.1h-41.2L312.8,387.9z"/>
<path d="M312.8,311.2v33l159.7-141.3h-27.1L312.8,311.2z"/>
<path d="M774.8,809.1c0,65.3-53,118.3-118.3,118.3H364.4c-65.4,0-118.4-53-118.4-118.3V215.7c0-65.3,53-118.3,118.4-118.3h291.9
	c65.4,0,118.4,53,118.4,118.3L774.8,809.1L774.8,809.1z M724.8,186.2H296v612.4h428.8V186.2z"/>
<path d="M514.9,826.8c-21.4,0-38.7,17.3-38.7,38.7c0,21.4,17.3,39,38.7,39c21.6,0,38.9-17.4,38.9-39
	C553.8,844.2,536.5,826.8,514.9,826.8z"/>
</svg>
