<?xml version="1.0" encoding="utf-8"?>
<!-- Generator: Adobe Illustrator 21.0.0, SVG Export Plug-In . SVG Version: 6.00 Build 0)  -->
<svg version="1.1" id="图层_1" xmlns="http://www.w3.org/2000/svg" xmlns:xlink="http://www.w3.org/1999/xlink" x="0px" y="0px"
	 viewBox="0 0 1024 1024" style="enable-background:new 0 0 1024 1024;" xml:space="preserve">
<path d="M202.3,743.3l36.2-145.7l108.9,109.3L202.3,743.3L202.3,743.3z M375,679.6L266,570.3l326.8-327.9l108.9,109.3L375,679.6
	L375,679.6z M728.9,324.4L620,215.1l81.7-82c15-15.1,39.4-15.1,54.5,0l54.5,54.7c15,15.1,15,39.5,0,54.6L728.9,324.4L728.9,324.4z
	 M885.8,901H137.9c-21.4,0-38.7-17.4-38.7-38.9c0-21.5,17.3-38.9,38.7-38.9h747.9c21.4,0,38.7,17.4,38.7,38.9S907.2,901,885.8,901
	L885.8,901z"/>
</svg>
