<?xml version="1.0" encoding="utf-8"?>
<!-- Generator: Adobe Illustrator 21.0.0, SVG Export Plug-In . SVG Version: 6.00 Build 0)  -->
<svg version="1.1" id="图层_1" xmlns="http://www.w3.org/2000/svg" xmlns:xlink="http://www.w3.org/1999/xlink" x="0px" y="0px"
	 viewBox="0 0 1024 1024" style="enable-background:new 0 0 1024 1024;" xml:space="preserve">
<path d="M788.3,818.2c0,15.2-3,29.3-9.1,42.4s-14.4,24.6-25.1,34.6c-10.6,10-23.1,17.9-37.4,23.7s-29.6,8.7-46,8.7H347.3
	c-16.4,0-31.7-2.9-46-8.7s-26.7-13.7-37.4-23.7c-10.6-10-19-21.6-25.1-34.6c-6.1-13.1-9.1-27.2-9.1-42.4V207.7
	c0-15.2,3-29.5,9.1-42.8s14.4-25.1,25.1-35.1s23.1-17.9,37.4-23.7s29.6-8.7,46-8.7h323.4c16.4,0,31.7,2.9,46,8.7
	c14.3,5.8,26.7,13.7,37.4,23.7c10.6,10,19,21.7,25.1,35.1c6.1,13.4,9.1,27.6,9.1,42.8V818.2z M714.5,251.5H302.7v522.1h411.8
	C714.5,773.5,714.5,251.5,714.5,251.5z M508.6,799.1c-12.8,0-23.8,4.6-33.3,13.7c-9.4,9.1-14.1,20.3-14.1,33.7
	c0,12.8,4.7,23.8,14.1,33.3c9.4,9.4,20.5,14.1,33.3,14.1c13.4,0,24.6-4.7,33.7-14.1c9.1-9.4,13.7-20.5,13.7-33.3
	c0-13.4-4.6-24.6-13.7-33.7S521.9,799.1,508.6,799.1z M581.5,174c0-4.9-1.5-8.7-4.6-11.4c-3-2.7-6.4-4.1-10-4.1H451.2
	c-3,0-6.2,1.4-9.6,4.1c-3.3,2.7-5,6.5-5,11.4c0,4.9,1.5,8.7,4.6,11.4c3,2.7,6.4,4.1,10,4.1h115.7c3.6,0,7-1.4,10-4.1
	C579.9,182.7,581.5,178.9,581.5,174z"/>
</svg>
