<?xml version="1.0" encoding="utf-8"?>
<!-- Generator: Adobe Illustrator 21.0.0, SVG Export Plug-In . SVG Version: 6.00 Build 0)  -->
<svg version="1.1" id="图层_1" xmlns="http://www.w3.org/2000/svg" xmlns:xlink="http://www.w3.org/1999/xlink" x="0px" y="0px"
	 viewBox="0 0 1024 1024" style="enable-background:new 0 0 1024 1024;" xml:space="preserve">
<style type="text/css">
	.st0{fill:#2C2C2C;}
</style>
<path class="st0" d="M462.4,441.3c7.2,2.6,14.6,4.3,22.1,5.7v34.3h48.7v-33.1c10-1.2,19.7-3.8,29-7.5c13.2-5.1,24.5-13.7,32.5-24.6
	c7.3-10.2,11.1-22.1,11.1-34.3c0.2-11.8-3.5-23.3-10.4-32.8c-8.5-10.6-19.7-18.6-32.5-23.2c-16.2-5.8-32.8-10.2-49.8-13.2
	c-14-1.6-27.6-5.9-40-12.6c-3.9-3-6-7.7-5.8-12.6c0.2-6.5,3.6-12.5,9.1-15.9c9.9-5.6,21.2-8.1,32.5-7.2c11.5-0.7,23,2.2,32.5,8.1
	c7.6,5.8,12.4,14.1,13.3,23.2v6.9l42.3-3v-8.7c-0.4-12.8-4.6-25.1-12-35.5c-8.3-11-19.6-19.2-32.6-23.8c-6.3-2.1-12.7-3.8-19.2-4.9
	V194h-48.7v31.9c-7.1,1.2-14,3-20.8,5.4c-12.4,4.3-23.1,12.3-30.9,22.9c-6.8,9.7-10.5,20.9-10.7,32.5c-0.4,10.6,2.7,21.1,8.8,30.1
	c6.4,9.2,15.4,16.6,26,21.4c14,6,28.7,10.4,43.9,13.2c12.9,2.6,25.6,5.8,38.1,9.6c6.2,1.8,11.8,5.1,16.2,9.6
	c2.9,3.4,4.4,7.9,4.2,12.4c0,4.8-1.7,9.5-4.9,13.2c-4,4.7-9.3,8.1-15.3,9.9c-18.4,6.3-38.4,6.3-56.9,0c-7.3-2.6-13.7-7.2-18.5-13.2
	c-4.4-6.5-7-13.9-7.8-21.7v-6.9l-41.6,3.4v6.9c0.3,14.2,4.9,28.1,13.3,40C436.1,426.4,448.2,435.7,462.4,441.3z"/>
<path class="st0" d="M765.5,225.9V98.2H254.7v127.7H127v702.3h766.1V225.9H765.5z M701.6,162.1v351.2H318.5V162.1H701.6z
	 M190.8,289.8h63.8v223.5h-63.8V289.8z M829.3,513.2h-63.8V289.8h63.8V513.2z"/>
</svg>
