<?xml version="1.0" encoding="utf-8"?>
<!-- Generator: Adobe Illustrator 21.0.0, SVG Export Plug-In . SVG Version: 6.00 Build 0)  -->
<svg version="1.1" id="图层_1" xmlns="http://www.w3.org/2000/svg" xmlns:xlink="http://www.w3.org/1999/xlink" x="0px" y="0px"
	 viewBox="0 0 1024 1024" style="enable-background:new 0 0 1024 1024;" xml:space="preserve">
<path d="M501.2,926.9c-141.7,0-276.6-28.5-399.6-80c19.2-130.6,99.1-241,210-302.3c48.3,41.6,111,66.8,179.7,66.8
	c75.6,0,144.2-30.4,194-79.8c121.6,56.7,211.2,170.6,233.9,307.3C791.3,895.3,650,926.9,501.2,926.9L501.2,926.9z M491.4,571.7
	c-130.8,0-236.8-105.9-236.8-236.8S360.6,98.2,491.4,98.2S728.1,204.2,728.1,335S622.1,571.7,491.4,571.7z"/>
</svg>
