<?xml version="1.0" encoding="utf-8"?>
<!-- Generator: Adobe Illustrator 21.0.0, SVG Export Plug-In . SVG Version: 6.00 Build 0)  -->
<svg version="1.1" id="图层_1" xmlns="http://www.w3.org/2000/svg" xmlns:xlink="http://www.w3.org/1999/xlink" x="0px" y="0px"
	 viewBox="0 0 1024 1024" style="enable-background:new 0 0 1024 1024;" xml:space="preserve">
<path d="M841.9,216c-10-9-23-14-36.6-14c-1.3,0-2.4,0-3.7,0.1c-0.7,0.1-9.4,0.6-22.8,0.6c-22.3,0-66-1.5-107.2-11.3
	c-53.4-12.7-114.9-71.4-132.8-83c-9.1-5.9-19.6-8.8-30-8.8s-20.7,2.9-29.8,8.7c-2.2,1.5-66.7,68.2-129.7,83.1
	c-41.3,9.8-85.7,11.3-108,11.3c-13.4,0-22.1-0.5-22.9-0.6c-1.2-0.1-2.3-0.1-3.6-0.1c-13.5,0-26.7,5-36.7,14
	c-10.9,9.7-17,23.5-17,37.9v129.7c0,479.7,324.5,541.5,338.2,543.9c3.1,0.5,6.4,0.8,9.5,0.8s6.4-0.2,9.5-0.8
	c13.8-2.4,340.7-64.3,340.7-543.9V253.8C858.9,239.5,852.6,225.7,841.9,216L841.9,216z M721.9,401.5l-225,217.7
	c-1.4,2.3-3.1,4.6-5.2,6.6c-6.6,6.4-15.3,9.5-24,9.3c-8.7,0.1-17.4-2.9-24-9.3c-2.1-2-3.8-4.3-5.2-6.6L318.2,502.8
	c-12.9-12.4-12.9-32.4,0-44.8s33.6-12.4,46.3,0l103.1,99.8l207.9-201c12.9-12.4,33.6-12.4,46.3,0C734.6,369,734.6,389.1,721.9,401.5
	L721.9,401.5z"/>
</svg>
