<?xml version="1.0" encoding="utf-8"?>
<!-- Generator: Adobe Illustrator 21.0.0, SVG Export Plug-In . SVG Version: 6.00 Build 0)  -->
<svg version="1.1" id="图层_1" xmlns="http://www.w3.org/2000/svg" xmlns:xlink="http://www.w3.org/1999/xlink" x="0px" y="0px"
	 viewBox="0 0 1024 1024" style="enable-background:new 0 0 1024 1024;" xml:space="preserve">
<path d="M201.8,616.8c-56.9,0-103-46.2-103-103s46.2-103,103-103s103,46.2,103,103S258.7,616.8,201.8,616.8z M510.9,616.8
	c-56.9,0-103-46.2-103-103s46.2-103,103-103s103,46.2,103,103S567.8,616.8,510.9,616.8z M820.2,616.8c-56.9,0-103-46.2-103-103
	s46.2-103,103-103s103,46.2,103,103S876.9,616.8,820.2,616.8z"/>
</svg>
